<?xml version="1.0" encoding="utf-8"?>
<!-- Generator: Adobe Illustrator 27.3.1, SVG Export Plug-In . SVG Version: 6.00 Build 0)  -->
<svg version="1.1" id="Calque_1" xmlns="http://www.w3.org/2000/svg" xmlns:xlink="http://www.w3.org/1999/xlink" x="0px" y="0px"
	 viewBox="0 0 24 24" style="enable-background:new 0 0 24 24;" xml:space="preserve">
<style type="text/css">
	.st0{fill:#011588;}
</style>
<path class="st0" d="M12,2C8.1,2,5,5.1,5,9c0,1.7,0.5,3.4,1.4,4.8c0.9,1.5,2.2,2.9,3.2,4.4c0.5,0.8,0.8,1.5,1.2,2.3
	C11,21,11.2,22,12,22s1-1,1.2-1.5c0.4-0.8,0.7-1.5,1.2-2.3c1-1.5,2.2-2.9,3.2-4.4C18.5,12.4,19,10.7,19,9C19,5.1,15.9,2,12,2z
	 M12,11.8c-1.4,0-2.5-1.1-2.5-2.5s1.1-2.5,2.5-2.5s2.5,1.1,2.5,2.5S13.4,11.8,12,11.8z"/>
</svg>
