<?xml version="1.0" encoding="utf-8"?>
<!-- Generator: Adobe Illustrator 27.3.1, SVG Export Plug-In . SVG Version: 6.00 Build 0)  -->
<svg version="1.1" id="Calque_1" xmlns="http://www.w3.org/2000/svg" xmlns:xlink="http://www.w3.org/1999/xlink" x="0px" y="0px"
	 viewBox="0 0 24 24" style="enable-background:new 0 0 24 24;" xml:space="preserve">
<style type="text/css">
	.st0{fill:#011588;}
</style>
<path class="st0" d="M5.7,2.8h12.5c2.2,0,3.9,1.8,3.9,3.9v10.6c0,1-0.4,2-1.1,2.8l0,0c-0.7,0.7-1.7,1.1-2.7,1.1H5.7
	c-1,0-2-0.4-2.8-1.1l0,0c-0.7-0.7-1.1-1.7-1.1-2.7V6.7C1.8,4.5,3.6,2.8,5.7,2.8z M10.8,10.7l4.2,2.9c0.3,0.2,0.4,0.6,0.2,0.9
	c0,0.1-0.1,0.1-0.2,0.2l-4.2,2.9c-0.1,0.1-0.3,0.1-0.4,0.1c-0.3,0-0.6-0.3-0.6-0.6c0,0,0,0,0,0v-5.8l0,0c0-0.3,0.3-0.6,0.6-0.6
	C10.5,10.6,10.7,10.6,10.8,10.7z M3,7.2h2.3L6.9,4H5.7C4.3,4,3.1,5.2,3,6.7C3,6.7,3,7.2,3,7.2z M8,4L6.5,7.2h4.2L12.2,4l0,0L8,4z
	 M13.3,4l-1.5,3.2h4.1L17.3,4H13.3z M18.4,4l-1.5,3.2h4V6.7C20.9,5.3,19.8,4.1,18.4,4L18.4,4z M21,8.4H3v8.9c0,0.7,0.3,1.4,0.8,1.9
	l0,0C4.3,19.7,5,20,5.7,20h12.5c0.7,0,1.4-0.3,1.9-0.8l0,0c0.5-0.5,0.8-1.2,0.8-1.9L21,8.4L21,8.4z"/>
</svg>
