<?xml version="1.0" encoding="utf-8"?>
<!-- Generator: Adobe Illustrator 27.3.1, SVG Export Plug-In . SVG Version: 6.00 Build 0)  -->
<svg version="1.1" id="Calque_1" xmlns="http://www.w3.org/2000/svg" xmlns:xlink="http://www.w3.org/1999/xlink" x="0px" y="0px"
	 viewBox="0 0 24 24" style="enable-background:new 0 0 24 24;" xml:space="preserve">
<style type="text/css">
	.st0{fill:#011588;}
</style>
<path class="st0" d="M19.7,8c-0.1-0.2-0.2-0.4-0.4-0.5l-4.9-4.8c-0.1-0.1-0.3-0.2-0.4-0.2H5.3c-0.6,0-1,0.4-1,1c0,0,0,0,0,0v17.2
	c0,0.6,0.4,1,1,1c0,0,0,0,0,0h13.4c0.6,0,1-0.5,1-1v-8.3l0,0L19.7,8L19.7,8z M14.5,4.4l3.4,3.1h-3.4V4.4z M12.1,20.5H5.4V3.5h7.9
	v4.5c0,0.3,0.3,0.6,0.6,0.6l0,0h4.7v3.7l0,0v8.2H12.1z M7.5,10.7c0.1-0.1,0.2-0.1,0.3-0.1h6.6c0.1,0,0.2,0,0.3,0.1
	c0.1,0.1,0.1,0.2,0.1,0.3c0,0.1,0,0.2-0.1,0.3c-0.1,0.1-0.2,0.1-0.3,0.1H7.8c-0.1,0-0.2,0-0.3-0.1C7.3,11.1,7.3,10.9,7.5,10.7
	L7.5,10.7z M7.5,17c0.1-0.1,0.2-0.1,0.3-0.1h8.4c0.1,0,0.2,0.1,0.3,0.1c0.2,0.2,0.2,0.5,0,0.6c-0.1,0.1-0.2,0.1-0.3,0.1H7.8
	c-0.1,0-0.2,0-0.3-0.1C7.3,17.5,7.3,17.2,7.5,17L7.5,17z M16.2,13.7c0.1,0,0.2,0.1,0.3,0.1c0.2,0.2,0.2,0.5,0,0.6
	c-0.1,0.1-0.2,0.1-0.3,0.1H7.8c-0.1,0-0.2,0-0.3-0.1c-0.2-0.2-0.2-0.5,0-0.6c0.1-0.1,0.2-0.1,0.3-0.1H16.2z M7.5,7.5
	c0.1-0.1,0.2-0.1,0.3-0.1h3c0.1,0,0.2,0,0.3,0.1c0.1,0.1,0.1,0.2,0.1,0.3c0,0.1,0,0.2-0.1,0.3l0,0c-0.1,0.1-0.2,0.1-0.3,0.1h-3
	c-0.1,0-0.2,0-0.3-0.1C7.3,7.9,7.3,7.7,7.5,7.5L7.5,7.5z"/>
</svg>
