<?xml version="1.0" standalone="no"?>
<!DOCTYPE svg PUBLIC "-//W3C//DTD SVG 20010904//EN"
 "http://www.w3.org/TR/2001/REC-SVG-20010904/DTD/svg10.dtd">
<svg version="1.0" xmlns="http://www.w3.org/2000/svg"
 width="651.000000pt" height="651.000000pt" viewBox="0 0 651.000000 651.000000"
 preserveAspectRatio="xMidYMid meet">
<metadata>
Created by potrace 1.14, written by Peter Selinger 2001-2017
</metadata>
<g transform="translate(0.000000,651.000000) scale(0.100000,-0.100000)"
fill="#000000" stroke="none">
<path d="M2078 6490 c-252 -79 -376 -362 -261 -595 107 -216 358 -301 579
-195 65 32 154 122 188 192 113 232 -2 509 -247 596 -65 22 -191 24 -259 2z
m224 -272 c49 -34 71 -82 66 -147 -8 -106 -82 -169 -186 -157 -200 24 -202
301 -3 336 40 7 83 -4 123 -32z"/>
<path d="M3135 6031 c-11 -5 -31 -21 -45 -36 l-25 -27 -3 -344 -3 -344 -27 -1
c-29 0 -1014 0 -1073 1 -33 0 -37 3 -48 43 -45 150 -193 298 -350 348 -84 27
-215 33 -299 14 -173 -41 -319 -168 -385 -335 -39 -100 -50 -205 -26 -255 18
-38 74 -75 113 -75 37 0 89 30 110 62 8 13 17 50 21 82 28 276 361 378 527
161 47 -62 62 -117 56 -203 -12 -148 -116 -248 -278 -266 -86 -10 -140 -62
-140 -135 0 -34 37 -91 70 -109 53 -27 206 -4 304 45 51 26 126 81 159 118 41
45 98 141 114 191 l17 54 65 0 c80 1 1053 1 1064 0 4 0 7 -369 7 -819 l0 -820
-780 1 -780 0 -11 41 c-16 62 -72 156 -125 211 -100 103 -233 164 -370 170
-498 20 -767 -562 -427 -926 280 -298 783 -190 919 198 l18 51 778 0 778 0 0
-819 0 -818 -568 0 -569 0 -12 43 c-24 78 -77 166 -128 210 -74 64 -191 17
-207 -83 -5 -35 9 -72 50 -126 58 -76 71 -202 30 -290 -51 -110 -163 -181
-276 -175 -150 7 -276 129 -285 274 -6 94 29 171 116 258 75 75 59 175 -34
214 -66 27 -129 -2 -209 -99 -51 -60 -100 -153 -112 -211 -3 -16 -9 -41 -12
-55 -6 -31 -6 -146 1 -180 52 -274 300 -472 571 -455 104 6 132 14 219 57 133
67 257 214 281 336 l6 27 566 0 567 0 5 -450 c5 -490 4 -475 64 -511 25 -15
50 -18 131 -17 104 2 231 10 275 17 14 2 47 7 73 11 27 4 57 8 67 10 9 2 35 6
56 9 116 18 432 110 521 151 17 8 34 15 37 15 4 0 45 18 92 40 47 22 87 40 89
40 9 0 239 133 305 176 615 403 1057 1027 1230 1735 16 65 31 135 34 156 4 21
11 63 16 93 45 255 43 627 -6 910 -8 47 -16 99 -19 115 -10 52 -65 254 -91
333 -287 855 -970 1537 -1822 1822 -119 40 -320 93 -402 105 -25 4 -54 9 -65
11 -11 2 -42 7 -70 10 -27 3 -61 8 -75 10 -52 10 -346 14 -365 5z m255 -260
c25 -1 188 -137 294 -245 319 -325 573 -792 710 -1306 l25 -90 -548 0 -548 0
0 818 c0 525 4 819 10 823 5 4 17 5 26 4 9 -2 23 -4 31 -4z m620 -123 c144
-45 336 -131 493 -222 210 -121 356 -235 543 -421 173 -172 315 -356 424 -545
32 -56 142 -281 153 -312 6 -17 -20 -18 -463 -18 l-468 0 -11 33 c-5 17 -17
61 -25 97 -23 102 -119 383 -176 515 -129 301 -295 576 -475 788 -97 115 -102
122 -80 113 11 -4 49 -17 85 -28z m463 -1788 c4 -4 13 -55 22 -130 2 -14 6
-50 10 -80 4 -30 8 -66 11 -80 22 -135 22 -712 0 -840 -3 -14 -7 -51 -11 -82
-3 -31 -10 -83 -15 -115 -6 -32 -10 -61 -10 -64 0 -3 -260 -6 -578 -7 l-579 0
0 702 0 703 573 -1 c315 -1 574 -3 577 -6z m1263 -48 c20 -78 54 -245 60 -300
3 -26 9 -78 14 -117 8 -70 6 -502 -3 -540 -3 -11 -8 -42 -11 -70 -9 -65 -41
-230 -55 -282 l-11 -40 -491 -1 -491 0 6 57 c4 31 9 70 11 86 22 164 29 291
29 550 0 210 -6 343 -19 450 -2 17 -7 55 -10 85 -3 30 -7 66 -10 80 -2 14 -6
41 -9 61 l-5 36 491 -1 491 -1 13 -53z m-4644 -291 c58 -31 113 -85 140 -140
17 -36 22 -64 22 -126 1 -70 -3 -87 -29 -133 -57 -104 -141 -156 -255 -156
-63 -1 -84 4 -132 27 -212 104 -222 393 -17 520 70 43 195 46 271 8z m3328
-1337 c0 -46 -100 -360 -167 -524 -100 -246 -275 -550 -408 -709 -126 -152
-267 -291 -376 -374 -60 -45 -78 -53 -114 -53 l-30 1 -1 838 -1 837 549 0
c492 0 548 -2 548 -16z m1215 -6 c-13 -45 -137 -293 -188 -377 -125 -207 -247
-360 -427 -537 -245 -240 -543 -434 -865 -562 -100 -40 -236 -85 -241 -80 -1
2 20 27 47 57 122 135 292 384 393 576 121 230 249 566 311 815 14 58 28 111
30 118 3 9 108 12 475 12 l471 0 -6 -22z"/>
<path d="M2165 4469 c-109 -11 -189 -48 -266 -124 -227 -225 -132 -607 176
-710 50 -17 153 -22 215 -10 98 17 216 101 274 192 127 204 58 477 -151 600
-62 36 -173 60 -248 52z m77 -259 c44 -13 93 -52 113 -91 22 -41 19 -114 -6
-158 -32 -58 -81 -85 -150 -85 -50 0 -64 4 -96 30 -55 44 -75 88 -70 152 6 89
59 140 167 161 3 0 22 -4 42 -9z"/>
<path d="M2105 2883 c-337 -78 -445 -502 -186 -736 137 -123 351 -142 506 -43
138 89 208 223 201 385 -4 85 -22 142 -66 211 -96 149 -281 224 -455 183z
m176 -266 c100 -53 120 -198 38 -274 -30 -28 -96 -51 -129 -46 -106 15 -167
90 -157 190 5 51 11 62 52 105 50 51 127 61 196 25z"/>
<path d="M2078 840 c-133 -41 -229 -133 -280 -266 -30 -79 -30 -204 0 -287
108 -299 498 -380 715 -149 211 227 121 590 -173 698 -66 24 -192 26 -262 4z
m225 -273 c48 -37 70 -88 65 -152 -8 -90 -78 -155 -168 -155 -163 0 -230 208
-100 308 37 29 50 32 112 29 42 -2 64 -10 91 -30z"/>
</g>
</svg>
